<svg xmlns="http://www.w3.org/2000/svg" viewBox="0 0 40 40"><g fill="none" fill-rule="evenodd"><circle fill="#121029" cx="20" cy="20" r="20"/><path d="M30 14.005c-.679.286-1.493.572-2.307.572.814-.572 1.493-1.288 1.764-2.29-.814.429-1.628.859-2.443 1.002-.678-.86-1.764-1.289-2.85-1.289-2.171 0-3.935 1.861-3.935 4.153 0 .286 0 .572.135 1.002-3.257-.143-6.107-1.862-8.007-4.296-.271.573-.543 1.289-.543 2.148 0 1.432.679 2.72 1.765 3.437-.679 0-1.222-.287-1.765-.573 0 2.004 1.357 3.723 3.122 4.01-.272.142-.679.142-1.086.142h-.679c.543 1.575 1.9 2.864 3.665 2.864-1.357 1.146-2.986 1.718-4.886 1.718H11c1.764 1.146 3.8 1.862 5.971 1.862 7.193 0 11.129-6.3 11.129-11.742v-.572c.814-.573 1.357-1.29 1.9-2.148Z" fill="#FFF" fill-rule="nonzero"/></g></svg>